<?xml version="1.0" encoding="utf-8"?>
<!-- Svg Vector Icons : http://www.onlinewebfonts.com/icon -->
<!DOCTYPE svg PUBLIC "-//W3C//DTD SVG 1.1//EN" "http://www.w3.org/Graphics/SVG/1.1/DTD/svg11.dtd">
<svg version="1.1" xmlns="http://www.w3.org/2000/svg" xmlns:xlink="http://www.w3.org/1999/xlink" x="0px" y="0px" viewBox="0 0 1000 1000" enable-background="new 0 0 1000 1000" xml:space="preserve">
<metadata> Svg Vector Icons : http://www.onlinewebfonts.com/icon </metadata>
<g><path d="M87.4,908.6c-11.9,0-18.1-5-21.2-9.2c-13.4-17.8,0.6-56.3,16.8-100.9c7.2-20,14.7-40.6,18.5-57c4.7-20.7,1.8-27.1-0.4-29c-26.8-23.9-49.7-59.7-66.4-103.5C18.7,567.5,10,521.7,10,480.2c0-105.5,51.2-203.8,144.3-276.8c92-72.2,214.8-112,345.9-112c77.4,0,151.9,14.5,221.3,43c65.2,26.8,123.5,65.5,168.7,112.1c66.9,69,102.3,152.1,99.7,234c-3.3,106-55.4,204.2-146.5,276.7c-91.1,72.4-212.9,112.3-343.2,112.3c-76.8,0-168.2-14.2-212.5-33.1c-2.1-0.9-4.9-1.4-8.2-1.4c-21.7,0-61.3,19.7-96.2,37.2C145.6,890.9,110,908.6,87.4,908.6z M500.1,145.1c-117.1,0-226.3,34.5-307.6,97.2C111,305.1,66.1,390.2,66.1,481.9c0,68.7,32.5,152,78.9,202.4c4.5,4.9,18.3,19.9-4.4,103.2c-4.2,15.3-9.3,31.8-15.1,48.9l-3,8.9l8.3-4.3c98.5-51.2,141.1-58.8,157.7-58.8c5.3,0,9.8,0.7,13.7,2c38.4,13.2,128.5,31.5,197.9,31.5c118.7,0,227.9-32.8,307.6-92.5c39.9-29.8,71-65.2,92.5-105.2c22.4-41.7,33.8-87.5,33.7-136c0-84.6-46.1-169.8-126.4-233.7c-40.2-32-86.6-57.2-138-75C615.5,154.5,558.5,145.1,500.1,145.1z"/><path d="M287.1,551.1c-20,0-39.5-8.1-53.7-22.2c-14.1-14.1-22.2-33.7-22.2-53.7c0-20,8.1-39.5,22.2-53.7c14.1-14.1,33.7-22.2,53.7-22.2c20,0,39.5,8.1,53.7,22.2c14.1,14.1,22.2,33.7,22.2,53.7c0,20-8.1,39.5-22.2,53.7C326.6,543,307.1,551.1,287.1,551.1z"/><path d="M491.5,551.1c-20,0-39.5-8.1-53.7-22.2c-14.1-14.1-22.2-33.7-22.2-53.7c0-20,8.1-39.5,22.2-53.7c14.1-14.1,33.7-22.2,53.7-22.2c20,0,39.5,8.1,53.7,22.2c14.1,14.1,22.2,33.7,22.2,53.7c0,20-8.1,39.5-22.2,53.7C531.1,543,511.5,551.1,491.5,551.1z"/><path d="M695.9,551.1c-20,0-39.5-8.1-53.7-22.2c-14.1-14.1-22.2-33.7-22.2-53.7c0-20,8.1-39.5,22.2-53.7c14.1-14.1,33.7-22.2,53.7-22.2c20,0,39.5,8.1,53.7,22.2c14.1,14.1,22.2,33.7,22.2,53.7c0,20-8.1,39.5-22.2,53.7C735.5,543,715.9,551.1,695.9,551.1z"/></g>
</svg>